<svg width="106" height="40" viewBox="0 0 106 40" fill="none" xmlns="http://www.w3.org/2000/svg">
<g clip-path="url(#clip0_2109_5)">
<path d="M8.33331 26.6666V15H31.6666V3.33331H8.33331L31.6666 26.6666H20M8.33331 26.6666L20 38.3333V26.6666M8.33331 26.6666H20" stroke="white" stroke-width="2" stroke-linecap="round" stroke-linejoin="round"/>
<path d="M42.352 18V17.84L42.64 17.744C42.8533 17.6693 42.9973 17.568 43.072 17.44C43.1467 17.312 43.184 17.1413 43.184 16.928C43.1947 16.288 43.2 15.6427 43.2 14.992C43.2 14.3413 43.2 13.6907 43.2 13.04V12.4C43.2 11.76 43.2 11.12 43.2 10.48C43.2 9.82933 43.1947 9.184 43.184 8.544C43.184 8.33067 43.152 8.16 43.088 8.032C43.0347 7.904 42.9067 7.80267 42.704 7.728L42.352 7.6V7.44H50.096L50.208 10.096H50.048L49.136 8.416C49.0293 8.21333 48.9067 8.05333 48.768 7.936C48.6293 7.81867 48.4373 7.76 48.192 7.76H45.616C45.6053 8.51733 45.6 9.29067 45.6 10.08C45.6 10.8693 45.6 11.6533 45.6 12.432H47.264C47.5093 12.432 47.6907 12.3787 47.808 12.272C47.9253 12.1653 48.0373 12.0107 48.144 11.808L48.48 11.2H48.64V14H48.48L48.128 13.392C48.0213 13.2 47.9093 13.0453 47.792 12.928C47.6853 12.8107 47.5093 12.752 47.264 12.752H45.6C45.6 13.4987 45.6 14.2133 45.6 14.896C45.6 15.568 45.6053 16.2293 45.616 16.88C45.616 17.296 45.8187 17.568 46.224 17.696L46.704 17.84V18H42.352ZM49.2686 18V17.84L49.6686 17.696C49.882 17.6107 50.0473 17.5093 50.1646 17.392C50.282 17.264 50.378 17.088 50.4526 16.864L53.7486 7.408H55.1086L58.3566 16.928C58.442 17.1627 58.538 17.344 58.6446 17.472C58.7513 17.5893 58.9166 17.6907 59.1406 17.776L59.3326 17.84V18H55.2686V17.84L55.5086 17.76C55.7326 17.6747 55.866 17.5573 55.9086 17.408C55.962 17.248 55.9566 17.0613 55.8926 16.848L55.1406 14.544H51.5886L50.8206 16.8C50.746 17.0347 50.7193 17.2213 50.7406 17.36C50.7726 17.4987 50.9006 17.6107 51.1246 17.696L51.4766 17.84V18H49.2686ZM51.7006 14.224H55.0446L53.4286 9.248L51.7006 14.224ZM63.3389 18.288C62.7522 18.288 62.1549 18.2133 61.5469 18.064C60.9389 17.9253 60.4322 17.7387 60.0269 17.504L60.1069 15.328H60.2669L60.7629 16.368C60.9122 16.6667 61.0722 16.9333 61.2429 17.168C61.4135 17.392 61.6482 17.568 61.9469 17.696C62.1602 17.8027 62.3629 17.8773 62.5549 17.92C62.7575 17.952 62.9815 17.968 63.2269 17.968C63.8775 17.968 64.3895 17.792 64.7629 17.44C65.1469 17.088 65.3389 16.6347 65.3389 16.08C65.3389 15.5573 65.2109 15.152 64.9549 14.864C64.6989 14.5653 64.2882 14.2773 63.7229 14L63.0669 13.712C62.1495 13.3067 61.4295 12.8427 60.9069 12.32C60.3949 11.7867 60.1389 11.0827 60.1389 10.208C60.1389 9.57867 60.2989 9.03467 60.6189 8.576C60.9495 8.11733 61.4029 7.76533 61.9789 7.52C62.5655 7.27467 63.2482 7.152 64.0269 7.152C64.5922 7.152 65.1255 7.22667 65.6269 7.376C66.1389 7.52533 66.5815 7.728 66.9549 7.984L66.8589 9.904H66.6989L66.0429 8.704C65.8615 8.33067 65.6802 8.06933 65.4989 7.92C65.3175 7.76 65.1095 7.648 64.8749 7.584C64.7362 7.54133 64.6082 7.51467 64.4909 7.504C64.3735 7.48267 64.2242 7.472 64.0429 7.472C63.4989 7.472 63.0402 7.632 62.6669 7.952C62.2935 8.26133 62.1069 8.68267 62.1069 9.216C62.1069 9.76 62.2509 10.1973 62.5389 10.528C62.8269 10.848 63.2482 11.136 63.8029 11.392L64.5389 11.712C65.5629 12.16 66.2989 12.64 66.7469 13.152C67.1949 13.6533 67.4189 14.304 67.4189 15.104C67.4189 16.0427 67.0615 16.8107 66.3469 17.408C65.6429 17.9947 64.6402 18.288 63.3389 18.288ZM70.1366 18V17.84L70.7926 17.68C71.23 17.584 71.4486 17.3173 71.4486 16.88V7.76H70.0886C69.694 7.76 69.4113 7.86667 69.2406 8.08C69.07 8.28267 68.8886 8.56533 68.6966 8.928L68.1206 10.048H67.9606L68.0406 7.44H77.2726L77.3366 10.048H77.1766L76.6006 8.928C76.4193 8.56533 76.2433 8.28267 76.0726 8.08C75.902 7.86667 75.6193 7.76 75.2246 7.76H73.8646V16.88C73.8646 17.3173 74.0833 17.584 74.5206 17.68L75.1766 17.84V18H70.1366ZM46.544 34.048L43.12 24.512C43.0453 24.2987 42.944 24.1333 42.816 24.016C42.6987 23.888 42.5333 23.792 42.32 23.728L41.936 23.6V23.44H46.544V23.6L46.048 23.744C45.8027 23.808 45.664 23.92 45.632 24.08C45.6107 24.24 45.6373 24.4373 45.712 24.672L48.08 31.696L50.464 24.656C50.5493 24.4107 50.5867 24.208 50.576 24.048C50.576 23.888 50.4533 23.776 50.208 23.712L49.792 23.6V23.44H52.032V23.6L51.6 23.728C51.3973 23.7813 51.2533 23.8773 51.168 24.016C51.0827 24.144 51.0027 24.3147 50.928 24.528L47.728 34.048H46.544ZM56.7663 34.288C56.1156 34.288 55.4863 34.1707 54.8783 33.936C54.2809 33.7013 53.7423 33.3547 53.2623 32.896C52.7929 32.4267 52.4196 31.8453 52.1423 31.152C51.8649 30.4587 51.7263 29.648 51.7263 28.72C51.7263 27.8027 51.8649 26.9973 52.1423 26.304C52.4196 25.6107 52.7983 25.0347 53.2783 24.576C53.7583 24.1067 54.2969 23.7547 54.8943 23.52C55.5023 23.2747 56.1263 23.152 56.7663 23.152C57.4169 23.152 58.0409 23.2693 58.6383 23.504C59.2463 23.728 59.7849 24.0747 60.2543 24.544C60.7343 25.0027 61.1129 25.584 61.3903 26.288C61.6676 26.9813 61.8063 27.792 61.8063 28.72C61.8063 29.6267 61.6676 30.432 61.3903 31.136C61.1129 31.8293 60.7343 32.4107 60.2543 32.88C59.7849 33.3387 59.2463 33.6907 58.6383 33.936C58.0409 34.1707 57.4169 34.288 56.7663 34.288ZM56.7663 33.952C57.3529 33.952 57.8276 33.7973 58.1903 33.488C58.5529 33.168 58.8143 32.6293 58.9743 31.872C59.1449 31.104 59.2303 30.0533 59.2303 28.72C59.2303 27.376 59.1449 26.3253 58.9743 25.568C58.8143 24.8 58.5529 24.2613 58.1903 23.952C57.8276 23.632 57.3529 23.472 56.7663 23.472C56.1903 23.472 55.7209 23.632 55.3583 23.952C54.9956 24.2613 54.7289 24.8 54.5583 25.568C54.3983 26.3253 54.3183 27.376 54.3183 28.72C54.3183 30.0533 54.3983 31.104 54.5583 31.872C54.7289 32.6293 54.9956 33.168 55.3583 33.488C55.7209 33.7973 56.1903 33.952 56.7663 33.952ZM62.2114 34V33.84L62.5314 33.712C62.7447 33.6373 62.8834 33.536 62.9474 33.408C63.022 33.28 63.0594 33.1093 63.0594 32.896V24.544C63.0594 24.3307 63.0274 24.16 62.9634 24.032C62.8994 23.904 62.7554 23.8027 62.5314 23.728L62.2114 23.6V23.44H66.3234V23.6L66.0034 23.728C65.79 23.8027 65.646 23.904 65.5714 24.032C65.5074 24.16 65.4754 24.3307 65.4754 24.544V32.896C65.4754 33.1093 65.5074 33.28 65.5714 33.408C65.646 33.5253 65.79 33.6267 66.0034 33.712L66.3234 33.84V34H62.2114ZM69.1679 34V33.84L69.8239 33.68C70.2612 33.584 70.4799 33.3173 70.4799 32.88V23.76H69.1199C68.7252 23.76 68.4425 23.8667 68.2719 24.08C68.1012 24.2827 67.9199 24.5653 67.7279 24.928L67.1519 26.048H66.9919L67.0719 23.44H76.3039L76.3679 26.048H76.2079L75.6319 24.928C75.4505 24.5653 75.2745 24.2827 75.1039 24.08C74.9332 23.8667 74.6505 23.76 74.2559 23.76H72.8959V32.88C72.8959 33.3173 73.1145 33.584 73.5519 33.68L74.2079 33.84V34H69.1679ZM77.0551 34V33.84L77.3751 33.712C77.5885 33.6373 77.7271 33.536 77.7911 33.408C77.8658 33.28 77.9031 33.1093 77.9031 32.896V24.544C77.9031 24.3307 77.8711 24.16 77.8071 24.032C77.7431 23.904 77.5991 23.8027 77.3751 23.728L77.0551 23.6V23.44H81.1671V23.6L80.8471 23.728C80.6338 23.8027 80.4898 23.904 80.4151 24.032C80.3511 24.16 80.3191 24.3307 80.3191 24.544V32.896C80.3191 33.1093 80.3511 33.28 80.4151 33.408C80.4898 33.5253 80.6338 33.6267 80.8471 33.712L81.1671 33.84V34H77.0551ZM82.0756 34V33.84L82.6036 33.68C82.7956 33.6267 82.9343 33.5253 83.0196 33.376C83.105 33.216 83.1476 33.0293 83.1476 32.816V25.12C83.0303 24.864 82.9343 24.672 82.8596 24.544C82.7956 24.416 82.721 24.3093 82.6356 24.224C82.5503 24.128 82.433 24.0107 82.2836 23.872L82.0116 23.6V23.44H84.8436L90.1556 30.688V24.656C90.1556 24.4427 90.1183 24.2507 90.0436 24.08C89.9796 23.9093 89.841 23.7973 89.6276 23.744L89.0996 23.6V23.44H91.3876V23.6L90.9556 23.744C90.7636 23.808 90.6463 23.92 90.6036 24.08C90.561 24.24 90.5396 24.4267 90.5396 24.64V34.048H89.6436L83.5316 25.648V32.816C83.5316 33.0293 83.5636 33.2107 83.6276 33.36C83.6916 33.5093 83.825 33.616 84.0276 33.68L84.5076 33.84V34H82.0756ZM97.4803 34.288C96.3923 34.288 95.4323 34.064 94.6003 33.616C93.7789 33.1573 93.1336 32.512 92.6643 31.68C92.2056 30.8373 91.9763 29.8453 91.9763 28.704C91.9763 27.5947 92.2056 26.624 92.6643 25.792C93.1229 24.96 93.7843 24.3147 94.6483 23.856C95.5229 23.3867 96.5789 23.152 97.8163 23.152C98.3816 23.152 98.9043 23.216 99.3843 23.344C99.8749 23.472 100.339 23.6587 100.776 23.904L100.84 26.144H100.68L99.7843 24.48C99.6456 24.2133 99.5176 24.0213 99.4003 23.904C99.2829 23.7867 99.1336 23.696 98.9523 23.632C98.7816 23.5787 98.6216 23.5413 98.4723 23.52C98.3336 23.488 98.1469 23.472 97.9123 23.472C97.2509 23.472 96.6643 23.648 96.1523 24C95.6509 24.352 95.2616 24.912 94.9843 25.68C94.7069 26.448 94.5683 27.456 94.5683 28.704C94.5683 29.9413 94.6963 30.9493 94.9523 31.728C95.2189 32.5067 95.5923 33.0773 96.0723 33.44C96.5523 33.792 97.1069 33.968 97.7363 33.968C97.8323 33.968 97.9229 33.9627 98.0083 33.952C98.1043 33.9307 98.1949 33.9093 98.2803 33.888C98.4829 33.856 98.6163 33.7707 98.6803 33.632C98.7443 33.4933 98.7763 33.328 98.7763 33.136V29.968C98.7763 29.552 98.5629 29.296 98.1363 29.2L97.4003 29.008V28.848H101.912V29.008L101.688 29.072C101.283 29.2 101.08 29.4667 101.08 29.872V33.344C100.526 33.6533 99.9603 33.888 99.3843 34.048C98.8189 34.208 98.1843 34.288 97.4803 34.288Z" fill="white"/>
</g>
<defs>
<clipPath id="clip0_2109_5">
<rect width="106" height="40" fill="white"/>
</clipPath>
</defs>
</svg>
